<?xml version="1.0" encoding="iso-8859-1"?>
<!-- Generator: Adobe Illustrator 24.1.0, SVG Export Plug-In . SVG Version: 6.00 Build 0)  -->
<svg version="1.1" id="Layer_1" xmlns="http://www.w3.org/2000/svg" xmlns:xlink="http://www.w3.org/1999/xlink" x="0px" y="0px"
	 viewBox="0 0 48 48" style="enable-background:new 0 0 48 48;" xml:space="preserve">
<linearGradient id="SVGID_1_" gradientUnits="userSpaceOnUse" x1="-248" y1="-234" x2="-238" y2="-234" gradientTransform="matrix(-1 0 0 -1 -224 -224)">
	<stop  offset="0.2662" style="stop-color:#199AE0"/>
	<stop  offset="0.5821" style="stop-color:#1898DE"/>
	<stop  offset="0.7453" style="stop-color:#1590D6"/>
	<stop  offset="0.873" style="stop-color:#1083C9"/>
	<stop  offset="0.9824" style="stop-color:#0870B7"/>
	<stop  offset="1" style="stop-color:#076CB3"/>
</linearGradient>
<path style="fill:url(#SVGID_1_);" d="M14,13h9c0.552,0,1-0.448,1-1V8c0-0.552-0.448-1-1-1h-9V13z"/>
<linearGradient id="SVGID_2_" gradientUnits="userSpaceOnUse" x1="3.9235" y1="8.1989" x2="17.0011" y2="41.8665">
	<stop  offset="0" style="stop-color:#32BDEF"/>
	<stop  offset="1" style="stop-color:#1EA2E4"/>
</linearGradient>
<path style="fill:url(#SVGID_2_);" d="M18.19,32H14V7l-4.828,4.828C8.421,12.579,8,13.596,8,14.657V32H3.81
	c-0.72,0-1.08,0.87-0.571,1.379l6.701,6.701c0.586,0.586,1.536,0.586,2.121,0l6.701-6.701C19.271,32.87,18.91,32,18.19,32z"/>
<linearGradient id="SVGID_3_" gradientUnits="userSpaceOnUse" x1="-365" y1="-231.4716" x2="-355" y2="-231.4716" gradientTransform="matrix(1 0 0 1 389 269.4716)">
	<stop  offset="0.2662" style="stop-color:#199AE0"/>
	<stop  offset="0.5821" style="stop-color:#1898DE"/>
	<stop  offset="0.7453" style="stop-color:#1590D6"/>
	<stop  offset="0.873" style="stop-color:#1083C9"/>
	<stop  offset="0.9824" style="stop-color:#0870B7"/>
	<stop  offset="1" style="stop-color:#076CB3"/>
</linearGradient>
<path style="fill:url(#SVGID_3_);" d="M34,35h-9c-0.552,0-1,0.448-1,1v4c0,0.552,0.448,1,1,1h9V35z"/>
<linearGradient id="SVGID_4_" gradientUnits="userSpaceOnUse" x1="32.3134" y1="7.6633" x2="43.9997" y2="40.7745">
	<stop  offset="0" style="stop-color:#32BDEF"/>
	<stop  offset="1" style="stop-color:#1EA2E4"/>
</linearGradient>
<path style="fill:url(#SVGID_4_);" d="M29.81,16H34v25l4.828-4.828c0.75-0.75,1.172-1.768,1.172-2.828V16h4.19
	c0.72,0,1.08-0.87,0.571-1.379L38.061,7.92c-0.586-0.586-1.536-0.586-2.121,0l-6.701,6.701C28.729,15.13,29.09,16,29.81,16z"/>
</svg>